<svg width="1903" height="1975" viewBox="0 0 1903 1975" fill="none" xmlns="http://www.w3.org/2000/svg">
<path d="M821.705 354.974C821.705 354.974 409.462 419.476 440.723 1006.9C440.837 1009.07 393.058 1040.8 389.316 1044.18C356 1074.32 328.047 1112.91 315.824 1158.05C272.299 1318.79 427.912 1484.42 553.751 1528.39C600.754 1544.81 650.437 1552.78 700.217 1554.23C1023.83 1563.65 1452.27 1357.97 1474.28 956.286C1475.06 941.874 1475.26 927.446 1474.89 913.052C1472.94 836.782 1454.53 762.502 1426.79 693.534C1426.8 693.536 1246.69 246.808 821.705 354.974Z" fill="#FFE4C0"/>
<path opacity="0.3" d="M636.508 1041.79C636.508 1041.79 571.114 979.575 520.488 1038.07Z" fill="#CBA284"/>
<path d="M1246.26 1351.91C1463.83 1460.96 1661.44 1187.29 1598.23 1033.5C1557.91 935.407 1440.25 927.812 1372.04 1017.44C1331.78 1070.34 1299.19 1137.96 1280.68 1202.63" fill="#FFE4C0"/>
<path opacity="0.3" d="M1425.58 1107.7C1397.57 1136.21 1375.04 1178.49 1347.37 1202.08C1352.5 1162.62 1360.67 1120.48 1379.84 1084.92C1399.31 1048.8 1434.69 1019.04 1470.71 1021.48C1515.35 1024.51 1552.08 1076.51 1556.79 1123.66C1553.97 1095.44 1497.24 1076.36 1475.58 1079.04C1441.65 1143 1428.47 1269.03 1428.47 1269.03C1400.25 1197.69 1411.7 1141.57 1425.58 1107.7Z" fill="#CBA284"/>
<path d="M540.263 1150.37C530.814 1155.8 464.742 1072.8 420.75 1098.05C405.9 1106.57 394.569 1121.11 386.061 1136.82C367.365 1171.38 360.968 1213.36 368.499 1252.09C379.158 1306.85 416.098 1351.69 459.549 1381.4C576.473 1461.34 669.226 1446.23 794.02 1399.96C892.248 1363.54 1026.08 1288.57 998.357 1153.3C949.551 915.2 540.386 1150.3 540.263 1150.37Z" fill="#873C41"/>
<path d="M878.768 1135.15C846.993 1154.88 808.303 1156.91 773.603 1149.04C766.967 1147.53 761.634 1153.11 759.979 1159.51C743.037 1225.36 646.975 1259.73 598.797 1217.51C595.059 1214.23 588.427 1213.45 584.51 1217.17C558.51 1241.84 516.852 1248.54 486.257 1231.84C443.058 1208.27 443.269 1142.04 455.037 1095.91C493.112 1107.54 533.083 1154.49 540.264 1150.35C540.36 1150.29 791.537 1006.02 923.776 1058.07C920.972 1090.04 906.294 1118.05 878.768 1135.15Z" fill="white"/>
<path d="M518.496 1391.27C587.203 1328.21 671.68 1292.98 757.334 1267.99C830.599 1246.61 913.09 1232.75 987.247 1253.97C952.882 1327.74 864.459 1373.82 794.021 1399.94C684.856 1440.42 600.205 1457.05 502.463 1407.08C507.788 1401.79 512.979 1396.34 518.496 1391.27Z" fill="#EE7E8B"/>
<mask id="mask0_8_541" style="mask-type:alpha" maskUnits="userSpaceOnUse" x="365" y="1046" width="638" height="393">
<path d="M540.263 1150.37C530.814 1155.8 464.742 1072.8 420.751 1098.05C405.9 1106.57 394.57 1121.11 386.062 1136.82C367.366 1171.38 360.968 1213.36 368.5 1252.09C379.159 1306.85 416.098 1351.69 459.549 1381.4C576.473 1461.34 669.227 1446.23 794.02 1399.96C892.249 1363.54 1026.08 1288.57 998.357 1153.3C949.552 915.2 540.386 1150.3 540.263 1150.37Z" fill="#873C41"/>
</mask>
<g mask="url(#mask0_8_541)">
<path fill-rule="evenodd" clip-rule="evenodd" d="M917.916 1040.96C916.26 1038.96 913.297 1038.68 911.297 1040.33C904.139 1046.26 890.446 1054.28 875.053 1062.54C861.197 1069.97 846.318 1077.41 834.298 1083.41C833.07 1084.03 831.872 1084.62 830.709 1085.21C782.305 1109.42 707.717 1135.08 668.779 1148.48C666.396 1149.3 664.146 1150.08 662.045 1150.8C616.716 1166.44 560.98 1183.44 500.749 1183.46C492.084 1182.95 485.839 1182.19 479.165 1180.31C472.408 1178.4 465.014 1175.29 454.137 1169.85C451.815 1168.69 448.991 1169.63 447.83 1171.95C446.669 1174.28 447.61 1177.1 449.932 1178.26C460.992 1183.8 469.007 1187.22 476.615 1189.36C484.269 1191.52 491.313 1192.33 500.335 1192.86C500.427 1192.86 500.519 1192.87 500.611 1192.87C562.552 1192.87 619.588 1175.4 665.11 1159.69C667.234 1158.96 669.515 1158.18 671.936 1157.34C710.772 1143.98 785.915 1118.13 834.913 1093.62C836.076 1093.04 837.275 1092.44 838.505 1091.82C850.511 1085.82 865.512 1078.33 879.495 1070.83C894.789 1062.63 909.301 1054.19 917.291 1047.58C919.291 1045.92 919.571 1042.96 917.916 1040.96Z" fill="#C4C4C4"/>
<rect width="37.6075" height="37.62" rx="2" transform="matrix(-0.998469 0.0553148 0.0552781 0.998471 520.469 1166.22)" fill="#A09E9E"/>
<rect width="37.6084" height="37.6192" rx="2" transform="matrix(-0.965904 0.258899 0.258739 0.965947 678.915 1131.73)" fill="#A09E9E"/>
<rect width="37.61" height="37.6175" rx="2" transform="matrix(-0.896029 0.443995 0.44376 0.896146 841.189 1065.9)" fill="#A09E9E"/>
</g>
<path d="M831.719 970.227C804.039 969.726 776.329 979.7 751.815 994.597C737.113 979.569 730.045 953.893 735.57 927.072C743.319 889.431 772.627 864.192 801.031 870.706C829.434 877.22 846.164 913.022 838.404 950.662C836.96 957.728 834.544 964.176 831.719 970.227Z" fill="#2A1200"/>
<path d="M468.926 974.817C464.845 965.796 462.449 954.778 462.682 942.744C463.244 912.841 479.255 888.716 498.444 888.881C517.633 889.033 532.729 913.41 532.166 943.326C531.854 959.775 526.768 974.301 519.16 984.171C503.144 977.958 486.132 974.991 468.926 974.817Z" fill="#2A1200"/>
<path d="M727.84 749.249C770.722 742.274 816.674 758.3 847.521 790.807C857.468 801.288 860.251 819.878 849.858 831.713C840.258 842.661 822.792 846.011 812.147 834.777C808.956 831.409 805.624 828.218 802.091 825.26C800.992 824.339 797.941 822.703 796.98 821.343C796.445 820.99 795.922 820.637 795.375 820.295C792.005 818.173 788.542 816.231 784.995 814.47C782.962 813.463 780.912 812.529 778.835 811.644C778.18 811.368 777.523 811.104 776.855 810.84C775.032 810.523 772.94 809.536 771.277 809.082C769.108 808.489 766.934 807.969 764.732 807.51C760.892 806.711 757.014 806.109 753.12 805.717C752.573 805.662 752.037 805.62 751.489 805.577C749.388 805.588 747.291 805.549 745.184 805.633C740.705 805.82 736.248 806.319 731.808 807.033C717.951 809.292 703.581 795.647 703.167 780.66C702.734 764.162 712.995 751.669 727.84 749.249Z" fill="#451E00"/>
<path d="M439.943 798.513C455.515 777.08 478.396 763.016 503.08 758.934C509.742 757.833 517.519 760.387 522.715 764.834C527.836 769.213 532.134 776.932 532.581 784.139C533.041 791.621 531.564 799.65 526.893 805.534C522.158 811.5 516.215 815.288 508.982 816.494C507.797 816.688 506.646 817.022 505.467 817.279C501.987 818.479 498.623 819.963 495.343 821.702C491.611 824.229 488.116 827.099 484.846 830.311C483.783 831.587 482.654 832.808 481.665 834.165C477.396 840.031 470.551 844.21 463.754 845.126C457.247 846.002 449.147 843.909 444.12 839.213C438.911 834.354 434.731 827.616 434.255 819.908C433.776 812.225 435.429 804.721 439.943 798.513Z" fill="#451E00"/>
<path d="M396.221 516.523C398.958 462.492 418.811 381.126 481.985 399.961C493.064 403.259 502.794 410.508 510.259 419.919C513.153 409.115 517.37 398.34 522.648 387.708C537.276 358.212 577.178 346.499 603.278 364.765C609.302 368.987 614.279 374.147 618.483 379.776C680.949 331.729 747.974 290.336 821.009 266.185C927.543 230.946 1043.47 233.974 1150.56 267.151C1162.05 270.705 1173.44 274.614 1184.74 278.836C1291.46 318.723 1399.38 386.044 1469.71 482.819C1538.71 577.761 1574.44 695.431 1586.27 814.637C1589.69 849.009 1591.46 883.594 1591.41 918.164C1591.41 921.505 1591.41 901.861 1590.36 941.662C1560.03 872.692 1440.8 886.8 1440.8 886.8L1371.77 965.175C1355.1 986.369 1337.03 1117.13 1315.75 1101.55L1306.34 1096.84C1291.69 1086.11 1299.67 1001.55 1300.1 982.373C1302.91 856.273 1251.01 724.629 1166.82 647.84C1081.24 569.786 957.022 539.736 843.416 532.671C748.052 526.743 655.19 550.71 572.765 603.362C546.325 620.249 521.168 639.681 498.054 661.586C496.391 663.164 473.656 688.48 472.674 687.969C416.834 659.255 395.199 590.156 395.894 527.056C395.933 523.687 396.038 520.162 396.221 516.523Z" fill="#212121"/>
<path d="M821.009 266.2C747.974 290.351 680.95 331.745 618.483 379.791C615.248 375.441 611.372 371.546 607.076 368.021C615.615 377.73 622.333 390.324 627.99 402.322C653.2 381.028 684.944 369.315 716.793 379.066C747.267 388.405 768.783 414.177 781.722 444.398C854.403 400.744 932.192 384.098 1021.47 400.9C1128.35 421.014 1221.77 495.188 1283.8 590.356C1367.33 718.503 1368.27 961.08 1305.37 1095.48C1306.89 1096.92 1305.37 1095.48 1315.7 1103.58C1336.99 1119.16 1364.39 1007.5 1425.57 976.148C1452.77 960.995 1521.59 947.619 1579.32 1009.07C1591.41 954.203 1591.41 929.122 1591.41 900.908C1591.46 866.787 1589.74 849.478 1586.41 815.987L1586.27 814.653C1574.44 695.447 1538.71 577.776 1469.71 482.835C1399.38 386.06 1291.46 318.738 1184.74 278.851C1173.44 274.629 1162.05 270.72 1150.56 267.167C1043.47 233.989 927.543 230.961 821.009 266.2Z" fill="#212121"/>
<path fill-rule="evenodd" clip-rule="evenodd" d="M289.636 904.029L443.396 898.502L444.963 865.585L288.936 872.687L289.636 904.029Z" fill="#333333"/>
<path fill-rule="evenodd" clip-rule="evenodd" d="M838.118 707.987C923.386 721.422 982.609 808.804 967.388 905.468C952.167 1002.13 868.959 1067.07 783.692 1053.64C698.425 1040.2 639.202 952.82 654.423 856.156C669.644 759.491 752.851 694.552 838.118 707.987ZM1000.77 871.56C999.138 775.48 935.268 691.558 842.995 677.019C738.482 660.551 641.292 739.989 623.761 851.325C623.757 851.347 623.754 851.369 623.75 851.391C620.524 850.092 617.007 848.842 613.255 847.751C601.848 844.433 587.485 842.399 572.532 845.521C570.622 806.338 559.231 770.36 540.695 741.947C517.654 706.627 482.957 682.306 441.704 680.147C400.514 677.991 362.879 698.458 335.249 730.948C307.611 763.449 289.189 808.717 285.689 858.997C282.188 909.275 294.19 956.237 317.212 991.528C340.254 1026.85 374.95 1051.17 416.203 1053.33C457.393 1055.48 495.029 1035.02 522.658 1002.53C549.589 970.858 567.769 927.066 571.921 878.327C582.667 873.93 594.061 874.811 604.577 877.87C611.129 879.776 616.852 882.416 621.019 884.65C620.289 982.973 684.812 1069.79 778.816 1084.6C883.329 1101.07 980.519 1021.64 998.05 910.299C998.404 908.053 998.723 905.809 999.007 903.568L1269.91 859.916C1320.73 852.884 1371.46 855.217 1408.93 867.799C1446.51 880.419 1466.34 926.847 1466.93 955.679L1497.97 954.932C1496.98 906.996 1462.18 852.623 1418.8 838.055C1375.35 823.462 1319.42 821.422 1265.61 828.889L1265.44 828.912L1000.77 871.56ZM514.75 759.239C533.667 788.237 544.32 828.241 541.248 872.372C538.176 916.499 522.042 955.204 499.126 982.151C476.201 1009.11 447.283 1023.56 417.902 1022.03C388.584 1020.49 362.055 1003.2 343.157 974.235C324.24 945.238 313.587 905.233 316.66 861.103C319.732 816.976 335.865 778.271 358.781 751.324C381.706 724.366 410.625 709.91 440.005 711.448C469.323 712.982 495.852 730.27 514.75 759.239Z" fill="#212121"/>
</svg>
