<svg width="25" height="28" viewBox="0 0 25 28" fill="none" xmlns="http://www.w3.org/2000/svg">
<path d="M5.64287 0C4.70002 0 3.92859 0.7875 3.92859 1.75V26.25C3.92859 27.2125 4.70002 28 5.64287 28H22.7857C23.7286 28 24.5 27.2125 24.5 26.25V7L17.6429 0H5.64287Z" fill="#E9EFF6"/>
<path d="M19.3571 7H24.5L17.6428 0V5.25C17.6428 6.2125 18.4143 7 19.3571 7Z" fill="#7D8FA4"/>
<path d="M24.5 12.25L19.3572 7H24.5V12.25Z" fill="#C1D2E5"/>
<path d="M21.0714 22.75C21.0714 23.2312 20.6857 23.625 20.2143 23.625H1.35714C0.885714 23.625 0.5 23.2312 0.5 22.75V14C0.5 13.5187 0.885714 13.125 1.35714 13.125H20.2143C20.6857 13.125 21.0714 13.5187 21.0714 14V22.75Z" fill="#EC4899"/>
<path d="M8.37289 21C8.30289 20.795 8.23039 20.5925 8.15539 20.3925C8.08039 20.1925 8.00789 19.9875 7.93789 19.7775H5.74789C5.67789 19.9875 5.60539 20.195 5.53039 20.4C5.46039 20.6 5.39039 20.8 5.32039 21H4.33789C4.53289 20.445 4.71789 19.9325 4.89289 19.4625C5.06789 18.9925 5.23789 18.5475 5.40289 18.1275C5.57289 17.7075 5.74039 17.3075 5.90539 16.9275C6.07039 16.5475 6.24039 16.1725 6.41539 15.8025H7.30789C7.48289 16.1725 7.65289 16.5475 7.81789 16.9275C7.98289 17.3075 8.14789 17.7075 8.31289 18.1275C8.48289 18.5475 8.65539 18.9925 8.83039 19.4625C9.01039 19.9325 9.19789 20.445 9.39289 21H8.37289ZM6.84289 16.8075C6.72789 17.0725 6.59539 17.395 6.44539 17.775C6.30039 18.155 6.14789 18.5675 5.98789 19.0125H7.69789C7.53789 18.5675 7.38289 18.1525 7.23289 17.7675C7.08289 17.3825 6.95289 17.0625 6.84289 16.8075Z" fill="white"/>
<path d="M11.1247 21C10.7497 20.19 10.3872 19.3425 10.0372 18.4575C9.69219 17.5725 9.36969 16.6875 9.06969 15.8025H10.1122C10.2322 16.1525 10.3547 16.51 10.4797 16.875C10.6047 17.24 10.7297 17.6 10.8547 17.955C10.9797 18.305 11.1047 18.645 11.2297 18.975C11.3547 19.305 11.4772 19.6075 11.5972 19.8825C11.7122 19.6075 11.8322 19.3075 11.9572 18.9825C12.0822 18.6525 12.2072 18.31 12.3322 17.955C12.4622 17.6 12.5897 17.24 12.7147 16.875C12.8397 16.51 12.9597 16.1525 13.0747 15.8025H14.0872C13.7822 16.6875 13.4572 17.5725 13.1122 18.4575C12.7672 19.3425 12.4072 20.19 12.0322 21H11.1247Z" fill="white"/>
<path d="M14.7593 15.8025H15.7043V21H14.7593V15.8025Z" fill="white"/>
<path d="M20.2143 23.6249H3.92859V24.4999H20.2143C20.6857 24.4999 21.0714 24.1061 21.0714 23.6249V22.7499C21.0714 23.2311 20.6857 23.6249 20.2143 23.6249Z" fill="#C1D2E5"/>
</svg>
