<svg width="60" height="60" viewBox="0 0 60 60" fill="none" xmlns="http://www.w3.org/2000/svg">
<circle cx="30" cy="30" r="30" fill="#ECEAFF"/>
<g filter="url(#filter0_d_11407_5889)">
<path d="M18 20.0001C18 19.4478 18.4477 19.0001 19 19.0001L27.733 19C27.9079 19 28.0798 19.0459 28.2315 19.1331L30.2685 20.3044C30.4202 20.3916 30.5921 20.4375 30.767 20.4375H41C41.5523 20.4375 42 20.8852 42 21.4375V41C42 41.5523 41.5523 42 41 42H19C18.4477 42 18 41.5523 18 41V20.0001Z" fill="#574AFF"/>
</g>
<g filter="url(#filter1_d_11407_5889)">
<path d="M20 24C20 23.4477 20.4477 23 21 23H39C39.5523 23 40 23.4477 40 24V40H20V24Z" fill="white"/>
</g>
<path d="M18 26C18 25.4477 18.4477 25 19 25H41C41.5523 25 42 25.4477 42 26V40H18V26Z" fill="#8177FF"/>
<defs>
<filter id="filter0_d_11407_5889" x="14" y="17" width="32" height="31" filterUnits="userSpaceOnUse" color-interpolation-filters="sRGB">
<feFlood flood-opacity="0" result="BackgroundImageFix"/>
<feColorMatrix in="SourceAlpha" type="matrix" values="0 0 0 0 0 0 0 0 0 0 0 0 0 0 0 0 0 0 127 0" result="hardAlpha"/>
<feOffset dy="2"/>
<feGaussianBlur stdDeviation="2"/>
<feComposite in2="hardAlpha" operator="out"/>
<feColorMatrix type="matrix" values="0 0 0 0 0.341176 0 0 0 0 0.290196 0 0 0 0 1 0 0 0 0.2 0"/>
<feBlend mode="normal" in2="BackgroundImageFix" result="effect1_dropShadow_11407_5889"/>
<feBlend mode="normal" in="SourceGraphic" in2="effect1_dropShadow_11407_5889" result="shape"/>
</filter>
<filter id="filter1_d_11407_5889" x="18" y="21" width="24" height="21" filterUnits="userSpaceOnUse" color-interpolation-filters="sRGB">
<feFlood flood-opacity="0" result="BackgroundImageFix"/>
<feColorMatrix in="SourceAlpha" type="matrix" values="0 0 0 0 0 0 0 0 0 0 0 0 0 0 0 0 0 0 127 0" result="hardAlpha"/>
<feOffset/>
<feGaussianBlur stdDeviation="1"/>
<feComposite in2="hardAlpha" operator="out"/>
<feColorMatrix type="matrix" values="0 0 0 0 0.187845 0 0 0 0 0.125 0 0 0 0 1 0 0 0 0.4 0"/>
<feBlend mode="normal" in2="BackgroundImageFix" result="effect1_dropShadow_11407_5889"/>
<feBlend mode="normal" in="SourceGraphic" in2="effect1_dropShadow_11407_5889" result="shape"/>
</filter>
</defs>
</svg>
