<svg width="25" height="28" viewBox="0 0 25 28" fill="none" xmlns="http://www.w3.org/2000/svg">
<path d="M5.64287 0C4.70002 0 3.92859 0.7875 3.92859 1.75V26.25C3.92859 27.2125 4.70002 28 5.64287 28H22.7857C23.7286 28 24.5 27.2125 24.5 26.25V7L17.6429 0H5.64287Z" fill="#E9EFF6"/>
<path d="M19.3571 7H24.5L17.6428 0V5.25C17.6428 6.2125 18.4143 7 19.3571 7Z" fill="#7D8FA4"/>
<path d="M24.5 12.25L19.3572 7H24.5V12.25Z" fill="#C1D2E5"/>
<path d="M21.0714 22.75C21.0714 23.2312 20.6857 23.625 20.2143 23.625H1.35714C0.885714 23.625 0.5 23.2312 0.5 22.75V14C0.5 13.5187 0.885714 13.125 1.35714 13.125H20.2143C20.6857 13.125 21.0714 13.5187 21.0714 14V22.75Z" fill="#F97316"/>
<path d="M4.29823 16.0574C4.39742 16.2288 4.50788 16.4384 4.62962 16.6864C4.75136 16.9344 4.87535 17.1959 5.00159 17.4709C5.12784 17.7414 5.25183 18.0187 5.37356 18.3028C5.49981 18.5823 5.61478 18.8416 5.71848 19.0805C5.82218 18.8416 5.9349 18.5823 6.05664 18.3028C6.17837 18.0187 6.30236 17.7414 6.42861 17.4709C6.55485 17.1959 6.67884 16.9344 6.80058 16.6864C6.92231 16.4384 7.03278 16.2288 7.13197 16.0574H7.90297C7.94354 16.4001 7.98187 16.7653 8.01794 17.1531C8.05401 17.5363 8.08557 17.9308 8.11262 18.3366C8.14418 18.7379 8.17124 19.1437 8.19378 19.554C8.22083 19.9597 8.24338 20.3565 8.26141 20.7443H7.42278C7.40475 20.1987 7.38221 19.6374 7.35515 19.0603C7.33261 18.4831 7.29654 17.924 7.24694 17.383C7.19735 17.4867 7.13873 17.6107 7.0711 17.755C7.00347 17.8992 6.93133 18.0571 6.85468 18.2284C6.77803 18.3952 6.69913 18.5688 6.61797 18.7491C6.54133 18.9295 6.46468 19.1053 6.38803 19.2767C6.31589 19.4435 6.24826 19.6013 6.18514 19.7501C6.12201 19.8944 6.06791 20.0184 6.02282 20.1221H5.38709C5.342 20.0184 5.2879 19.8921 5.22477 19.7433C5.16165 19.5945 5.09177 19.4367 5.01512 19.2699C4.94298 19.0986 4.86633 18.9227 4.78517 18.7424C4.70852 18.562 4.63187 18.3884 4.55523 18.2216C4.47858 18.0548 4.40644 17.8992 4.33881 17.755C4.27117 17.6062 4.21256 17.4822 4.16297 17.383C4.11337 17.924 4.07504 18.4831 4.04799 19.0603C4.02545 19.6374 4.00516 20.1987 3.98712 20.7443H3.1485C3.16653 20.3565 3.18682 19.9552 3.20937 19.5404C3.23642 19.1256 3.26347 18.7153 3.29052 18.3095C3.32209 17.8992 3.3559 17.5025 3.39197 17.1192C3.42804 16.736 3.46636 16.3821 3.50694 16.0574H4.29823Z" fill="white"/>
<path d="M9.95076 18.3975C9.95076 18.6545 9.98232 18.8889 10.0454 19.1008C10.1086 19.3082 10.1987 19.4863 10.316 19.6351C10.4377 19.7794 10.5842 19.8921 10.7556 19.9733C10.9269 20.0544 11.1208 20.095 11.3372 20.095C11.5491 20.095 11.7407 20.0544 11.9121 19.9733C12.0834 19.8921 12.2277 19.7794 12.3449 19.6351C12.4666 19.4863 12.5591 19.3082 12.6222 19.1008C12.6853 18.8889 12.7169 18.6545 12.7169 18.3975C12.7169 18.1405 12.6853 17.9083 12.6222 17.7009C12.5591 17.489 12.4666 17.3109 12.3449 17.1666C12.2277 17.0178 12.0834 16.9028 11.9121 16.8217C11.7407 16.7405 11.5491 16.6999 11.3372 16.6999C11.1208 16.6999 10.9269 16.7405 10.7556 16.8217C10.5842 16.9028 10.4377 17.0178 10.316 17.1666C10.1987 17.3154 10.1086 17.4935 10.0454 17.7009C9.98232 17.9083 9.95076 18.1405 9.95076 18.3975ZM13.6096 18.3975C13.6096 18.7987 13.5487 19.1527 13.427 19.4593C13.3098 19.7659 13.1475 20.0229 12.9401 20.2303C12.7372 20.4332 12.4982 20.5865 12.2232 20.6902C11.9481 20.7939 11.6551 20.8457 11.344 20.8457C11.0329 20.8457 10.7375 20.7939 10.458 20.6902C10.183 20.5865 9.94174 20.4332 9.73434 20.2303C9.53145 20.0229 9.36913 19.7659 9.2474 19.4593C9.12566 19.1527 9.06479 18.7987 9.06479 18.3975C9.06479 17.9962 9.12566 17.6445 9.2474 17.3424C9.36913 17.0358 9.5337 16.7788 9.7411 16.5714C9.95302 16.364 10.1965 16.2085 10.4715 16.1048C10.7466 16.0011 11.0374 15.9492 11.344 15.9492C11.6506 15.9492 11.9414 16.0011 12.2164 16.1048C12.4914 16.2085 12.7304 16.364 12.9333 16.5714C13.1407 16.7788 13.3053 17.0358 13.427 17.3424C13.5487 17.6445 13.6096 17.9962 13.6096 18.3975Z" fill="white"/>
<path d="M15.7514 20.7443C15.4133 20.0138 15.0864 19.2496 14.7708 18.4516C14.4597 17.6535 14.1689 16.8555 13.8984 16.0574H14.8384C14.9466 16.373 15.0571 16.6954 15.1698 17.0246C15.2825 17.3537 15.3953 17.6783 15.508 17.9984C15.6207 18.3141 15.7334 18.6206 15.8461 18.9182C15.9589 19.2158 16.0693 19.4886 16.1775 19.7366C16.2812 19.4886 16.3894 19.2181 16.5022 18.925C16.6149 18.6274 16.7276 18.3186 16.8403 17.9984C16.9575 17.6783 17.0725 17.3537 17.1852 17.0246C17.2979 16.6954 17.4062 16.373 17.5099 16.0574H18.4229C18.1478 16.8555 17.8548 17.6535 17.5437 18.4516C17.2326 19.2496 16.9079 20.0138 16.5698 20.7443H15.7514Z" fill="white"/>
<path d="M20.2143 23.6249H3.92859V24.4999H20.2143C20.6857 24.4999 21.0714 24.1061 21.0714 23.6249V22.7499C21.0714 23.2311 20.6857 23.6249 20.2143 23.6249Z" fill="#C1D2E5"/>
</svg>
