<svg width="25" height="28" viewBox="0 0 25 28" fill="none" xmlns="http://www.w3.org/2000/svg">
<path d="M5.64281 0C4.69995 0 3.92853 0.7875 3.92853 1.75V26.25C3.92853 27.2125 4.69995 28 5.64281 28H22.7856C23.7284 28 24.4999 27.2125 24.4999 26.25V7L17.6428 0H5.64281Z" fill="#E9EFF6"/>
<path d="M19.3571 7H24.4999L17.6428 0V5.25C17.6428 6.2125 18.4142 7 19.3571 7Z" fill="#7D8FA4"/>
<path d="M24.5 12.25L19.3572 7H24.5V12.25Z" fill="#C1D2E5"/>
<path d="M21.0713 22.75C21.0713 23.2312 20.6856 23.625 20.2142 23.625H1.35714C0.885713 23.625 0.5 23.2312 0.5 22.75V14C0.5 13.5187 0.885713 13.125 1.35714 13.125H20.2142C20.6856 13.125 21.0713 13.5187 21.0713 14V22.75Z" fill="#EF4444"/>
<path d="M5.39297 15.479C6.14797 15.479 6.72547 15.6165 7.12547 15.8915C7.53047 16.1665 7.73297 16.5965 7.73297 17.1815C7.73297 17.4865 7.67797 17.749 7.56797 17.969C7.46297 18.184 7.30797 18.3615 7.10297 18.5015C6.89797 18.6365 6.64797 18.7365 6.35297 18.8015C6.05797 18.8665 5.72047 18.899 5.34047 18.899H4.86797V20.729H3.92297V15.6065C4.14297 15.5565 4.38547 15.524 4.65047 15.509C4.92047 15.489 5.16797 15.479 5.39297 15.479ZM5.46047 16.2965C5.22047 16.2965 5.02297 16.304 4.86797 16.319V18.089H5.32547C5.78047 18.089 6.13047 18.0265 6.37547 17.9015C6.62047 17.7715 6.74297 17.529 6.74297 17.174C6.74297 17.004 6.71047 16.8615 6.64547 16.7465C6.58047 16.6315 6.49047 16.5415 6.37547 16.4765C6.26047 16.4115 6.12297 16.3665 5.96297 16.3415C5.80797 16.3115 5.64047 16.2965 5.46047 16.2965Z" fill="white"/>
<path d="M9.54083 19.949C9.59583 19.954 9.66832 19.959 9.75833 19.964C9.84833 19.964 9.97083 19.964 10.1258 19.964C10.7608 19.964 11.2333 19.804 11.5433 19.484C11.8583 19.159 12.0158 18.7065 12.0158 18.1265C12.0158 17.5365 11.8633 17.084 11.5583 16.769C11.2533 16.454 10.7808 16.2965 10.1408 16.2965C9.86083 16.2965 9.66083 16.304 9.54083 16.319V19.949ZM13.0058 18.1265C13.0058 18.5765 12.9358 18.969 12.7958 19.304C12.6558 19.634 12.4558 19.9115 12.1958 20.1365C11.9408 20.3565 11.6308 20.5215 11.2658 20.6315C10.9058 20.7365 10.5058 20.789 10.0658 20.789C9.85583 20.789 9.61833 20.779 9.35333 20.759C9.08833 20.744 8.83583 20.709 8.59583 20.654V15.6065C8.83583 15.5515 9.09083 15.5165 9.36083 15.5015C9.63083 15.4865 9.87083 15.479 10.0808 15.479C10.5158 15.479 10.9133 15.5315 11.2733 15.6365C11.6333 15.7365 11.9408 15.8965 12.1958 16.1165C12.4558 16.3315 12.6558 16.6065 12.7958 16.9415C12.9358 17.2715 13.0058 17.6665 13.0058 18.1265Z" fill="white"/>
<path d="M14.0377 20.729V15.5315H17.3227V16.334H14.9827V17.6615H17.0602V18.464H14.9827V20.729H14.0377Z" fill="white"/>
<path d="M20.2142 23.625H3.92853V24.5H20.2142C20.6856 24.5 21.0713 24.1063 21.0713 23.625V22.75C21.0713 23.2313 20.6856 23.625 20.2142 23.625Z" fill="#C1D2E5"/>
</svg>
