<svg width="25" height="28" viewBox="0 0 25 28" fill="none" xmlns="http://www.w3.org/2000/svg">
<path d="M5.64287 0C4.70002 0 3.92859 0.7875 3.92859 1.75V26.25C3.92859 27.2125 4.70002 28 5.64287 28H22.7857C23.7286 28 24.5 27.2125 24.5 26.25V7L17.6429 0H5.64287Z" fill="#E9EFF6"/>
<path d="M19.3571 7H24.5L17.6428 0V5.25C17.6428 6.2125 18.4143 7 19.3571 7Z" fill="#7D8FA4"/>
<path d="M24.5 12.25L19.3572 7H24.5V12.25Z" fill="#C1D2E5"/>
<path d="M21.0714 22.75C21.0714 23.2312 20.6857 23.625 20.2143 23.625H1.35714C0.885714 23.625 0.5 23.2312 0.5 22.75V14C0.5 13.5187 0.885714 13.125 1.35714 13.125H20.2143C20.6857 13.125 21.0714 13.5187 21.0714 14V22.75Z" fill="#16A34A"/>
<path d="M5.97746 18.3913L6.80996 17.1088H7.76246L6.47246 18.9613C6.74246 19.3113 6.99996 19.6663 7.24496 20.0263C7.49496 20.3813 7.69996 20.7163 7.85996 21.0313H6.87746C6.83246 20.9363 6.77246 20.8288 6.69746 20.7088C6.62746 20.5838 6.54996 20.4563 6.46496 20.3263C6.38496 20.1913 6.29996 20.0588 6.20996 19.9288C6.11996 19.7988 6.03246 19.6763 5.94746 19.5613C5.77246 19.7863 5.59996 20.0363 5.42996 20.3113C5.26496 20.5813 5.12746 20.8213 5.01746 21.0313H4.08746C4.16246 20.8813 4.25246 20.7213 4.35746 20.5513C4.46246 20.3813 4.57496 20.2088 4.69496 20.0338C4.81496 19.8538 4.93746 19.6763 5.06246 19.5013C5.19246 19.3213 5.31996 19.1513 5.44496 18.9913L4.14746 17.1088H5.14496L5.97746 18.3913Z" fill="white"/>
<path d="M9.90219 21.1063C9.63219 21.1013 9.40719 21.0713 9.22719 21.0163C9.05219 20.9613 8.91219 20.8838 8.80719 20.7838C8.70219 20.6788 8.62719 20.5513 8.58219 20.4013C8.54219 20.2463 8.52219 20.0713 8.52219 19.8763V15.3613L9.42969 15.2113V19.7038C9.42969 19.8138 9.43719 19.9063 9.45219 19.9813C9.47219 20.0563 9.50469 20.1213 9.54969 20.1763C9.59469 20.2263 9.65469 20.2663 9.72969 20.2963C9.80969 20.3213 9.90969 20.3413 10.0297 20.3563L9.90219 21.1063Z" fill="white"/>
<path d="M11.7463 20.3788C11.9863 20.3788 12.1613 20.3513 12.2713 20.2963C12.3813 20.2363 12.4363 20.1363 12.4363 19.9963C12.4363 19.8663 12.3763 19.7588 12.2563 19.6738C12.1413 19.5888 11.9488 19.4963 11.6788 19.3963C11.5138 19.3363 11.3613 19.2738 11.2213 19.2088C11.0863 19.1388 10.9688 19.0588 10.8688 18.9688C10.7688 18.8788 10.6888 18.7713 10.6288 18.6463C10.5738 18.5163 10.5463 18.3588 10.5463 18.1738C10.5463 17.8138 10.6788 17.5313 10.9438 17.3263C11.2088 17.1163 11.5688 17.0113 12.0238 17.0113C12.2538 17.0113 12.4738 17.0338 12.6838 17.0788C12.8938 17.1188 13.0513 17.1588 13.1563 17.1988L12.9913 17.9338C12.8913 17.8888 12.7638 17.8488 12.6088 17.8138C12.4538 17.7738 12.2738 17.7538 12.0688 17.7538C11.8838 17.7538 11.7338 17.7863 11.6188 17.8513C11.5038 17.9113 11.4463 18.0063 11.4463 18.1363C11.4463 18.2013 11.4563 18.2588 11.4763 18.3088C11.5013 18.3588 11.5413 18.4063 11.5963 18.4513C11.6513 18.4913 11.7238 18.5338 11.8138 18.5788C11.9038 18.6188 12.0138 18.6613 12.1438 18.7063C12.3588 18.7863 12.5413 18.8663 12.6913 18.9463C12.8413 19.0213 12.9638 19.1088 13.0588 19.2088C13.1588 19.3038 13.2313 19.4138 13.2763 19.5388C13.3213 19.6638 13.3438 19.8138 13.3438 19.9888C13.3438 20.3638 13.2038 20.6488 12.9238 20.8438C12.6488 21.0338 12.2538 21.1288 11.7388 21.1288C11.3938 21.1288 11.1163 21.0988 10.9063 21.0388C10.6963 20.9838 10.5488 20.9388 10.4638 20.9038L10.6213 20.1463C10.7563 20.2013 10.9163 20.2538 11.1013 20.3038C11.2913 20.3538 11.5063 20.3788 11.7463 20.3788Z" fill="white"/>
<path d="M15.6015 18.3913L16.434 17.1088H17.3865L16.0965 18.9613C16.3665 19.3113 16.624 19.6663 16.869 20.0263C17.119 20.3813 17.324 20.7163 17.484 21.0313H16.5015C16.4565 20.9363 16.3965 20.8288 16.3215 20.7088C16.2515 20.5838 16.174 20.4563 16.089 20.3263C16.009 20.1913 15.924 20.0588 15.834 19.9288C15.744 19.7988 15.6565 19.6763 15.5715 19.5613C15.3965 19.7863 15.224 20.0363 15.054 20.3113C14.889 20.5813 14.7515 20.8213 14.6415 21.0313H13.7115C13.7865 20.8813 13.8765 20.7213 13.9815 20.5513C14.0865 20.3813 14.199 20.2088 14.319 20.0338C14.439 19.8538 14.5615 19.6763 14.6865 19.5013C14.8165 19.3213 14.944 19.1513 15.069 18.9913L13.7715 17.1088H14.769L15.6015 18.3913Z" fill="white"/>
<path d="M20.2143 23.6249H3.92859V24.4999H20.2143C20.6857 24.4999 21.0714 24.1061 21.0714 23.6249V22.7499C21.0714 23.2311 20.6857 23.6249 20.2143 23.6249Z" fill="#C1D2E5"/>
</svg>
